<?xml version="1.0" encoding="utf-8"?>
<!-- Generator: Adobe Illustrator 16.0.0, SVG Export Plug-In . SVG Version: 6.00 Build 0)  -->
<!DOCTYPE svg PUBLIC "-//W3C//DTD SVG 1.1//EN" "http://www.w3.org/Graphics/SVG/1.1/DTD/svg11.dtd">
<svg version="1.1" id="Layer_1" xmlns="http://www.w3.org/2000/svg" xmlns:xlink="http://www.w3.org/1999/xlink" x="0px" y="0px"
	 width="176px" height="32px" viewBox="0 0 176 32" enable-background="new 0 0 176 32" xml:space="preserve">
<g display="none">
	<path display="inline" fill="#FFFFFF" d="M8.421,8.421c0-0.93,0.754-1.685,1.684-1.685l0,0c0.93,0,1.685,0.754,1.685,1.685v15.158
		c0,0.931-0.754,1.685-1.685,1.685l0,0c-0.93,0-1.684-0.754-1.684-1.685V8.421z"/>
</g>
<g display="none" opacity="0.9">
	<path display="inline" fill="#FFFFFF" d="M14.737,15.158c0-0.93,0.754-1.685,1.684-1.685l0,0c0.93,0,1.684,0.754,1.684,1.685v8.42
		c0,0.931-0.754,1.685-1.684,1.685l0,0c-0.93,0-1.684-0.754-1.684-1.685V15.158z"/>
</g>
<g display="none" opacity="0.7">
	<path display="inline" fill="#FFFFFF" d="M21.052,10.947c0-0.93,0.754-1.684,1.684-1.684l0,0c0.93,0,1.685,0.754,1.685,1.684
		v12.631c0,0.931-0.754,1.685-1.685,1.685l0,0c-0.93,0-1.684-0.754-1.684-1.685V10.947z"/>
</g>
<g>
	<path fill="#FFFFFF" d="M44.263,27.157v-15.4h7.524c1.936,0,3.391,0.367,4.367,1.1s1.463,1.701,1.463,2.904
		c0,0.807-0.198,1.506-0.594,2.101c-0.396,0.594-0.938,1.052-1.628,1.375s-1.481,0.483-2.376,0.483l0.418-0.901
		c0.968,0,1.826,0.157,2.574,0.473c0.748,0.315,1.331,0.781,1.749,1.397c0.418,0.615,0.627,1.371,0.627,2.266
		c0,1.32-0.521,2.351-1.562,3.092c-1.042,0.74-2.574,1.11-4.598,1.11H44.263z M47.805,24.473h4.158c0.924,0,1.625-0.149,2.101-0.45
		s0.715-0.781,0.715-1.441c0-0.646-0.238-1.126-0.715-1.44c-0.477-0.315-1.177-0.474-2.101-0.474h-4.422v-2.596h3.806
		c0.865,0,1.529-0.15,1.991-0.451c0.462-0.3,0.693-0.759,0.693-1.375c0-0.601-0.231-1.052-0.693-1.353
		c-0.462-0.3-1.125-0.451-1.991-0.451h-3.542V24.473z"/>
	<path fill="#FFFFFF" d="M64.503,27.333c-0.924,0-1.716-0.157-2.376-0.473c-0.66-0.315-1.166-0.744-1.518-1.287
		c-0.352-0.542-0.528-1.151-0.528-1.826c0-0.704,0.172-1.319,0.517-1.848c0.344-0.528,0.891-0.942,1.639-1.243
		c0.748-0.301,1.723-0.451,2.926-0.451h3.146v2.002h-2.772c-0.807,0-1.36,0.133-1.661,0.396s-0.451,0.594-0.451,0.99
		c0,0.439,0.172,0.788,0.517,1.045c0.345,0.256,0.818,0.385,1.419,0.385c0.572,0,1.085-0.136,1.54-0.407
		c0.455-0.271,0.785-0.671,0.99-1.199l0.528,1.585c-0.25,0.762-0.704,1.342-1.364,1.737S65.544,27.333,64.503,27.333z
		 M68.111,27.157v-2.31l-0.22-0.506v-4.137c0-0.732-0.224-1.305-0.671-1.716c-0.448-0.411-1.133-0.616-2.057-0.616
		c-0.631,0-1.25,0.1-1.859,0.297c-0.609,0.198-1.126,0.467-1.551,0.803l-1.232-2.397c0.646-0.455,1.422-0.807,2.332-1.056
		c0.909-0.249,1.833-0.374,2.772-0.374c1.804,0,3.205,0.426,4.202,1.276c0.997,0.85,1.496,2.178,1.496,3.982v6.754H68.111z"/>
	<path fill="#FFFFFF" d="M73.017,18.225v-2.639h8.206v2.639H73.017z M79.265,27.333c-1.394,0-2.479-0.354-3.256-1.067
		c-0.777-0.711-1.166-1.771-1.166-3.178V12.703h3.432v10.34c0,0.499,0.132,0.885,0.396,1.155c0.264,0.271,0.623,0.407,1.078,0.407
		c0.542,0,1.004-0.146,1.386-0.44l0.924,2.421c-0.352,0.249-0.773,0.436-1.265,0.561C80.302,27.271,79.793,27.333,79.265,27.333z"/>
	<path fill="#FFFFFF" d="M89.494,27.333c-1.35,0-2.533-0.264-3.553-0.792c-1.02-0.527-1.808-1.25-2.365-2.167
		c-0.558-0.916-0.836-1.962-0.836-3.135c0-1.188,0.275-2.24,0.825-3.157c0.55-0.916,1.302-1.635,2.255-2.156
		c0.953-0.521,2.031-0.781,3.234-0.781c1.158,0,2.203,0.246,3.135,0.737c0.932,0.492,1.668,1.196,2.211,2.112
		c0.543,0.917,0.814,2.014,0.814,3.289c0,0.132-0.008,0.283-0.021,0.451c-0.016,0.168-0.031,0.326-0.045,0.473h-9.614v-2.002h7.809
		l-1.318,0.594c0-0.615-0.125-1.15-0.375-1.605s-0.594-0.811-1.033-1.066c-0.441-0.258-0.955-0.386-1.541-0.386
		s-1.104,0.128-1.551,0.386c-0.447,0.256-0.795,0.615-1.045,1.077s-0.373,1.009-0.373,1.64v0.527c0,0.646,0.143,1.214,0.428,1.705
		c0.287,0.492,0.689,0.865,1.211,1.122c0.52,0.257,1.133,0.385,1.836,0.385c0.631,0,1.186-0.095,1.662-0.286
		c0.477-0.189,0.912-0.477,1.309-0.857l1.826,1.98c-0.543,0.615-1.225,1.088-2.047,1.418C91.512,27.168,90.564,27.333,89.494,27.333
		z"/>
	<path fill="#FFFFFF" d="M95.721,27.157l6.864-15.4h3.52l6.887,15.4h-3.74l-5.632-13.596h1.408l-5.654,13.596H95.721z
		 M99.153,23.857l0.945-2.706h7.92l0.969,2.706H99.153z"/>
	<path fill="#FFFFFF" d="M119.327,27.333c-1.115,0-2.119-0.253-3.014-0.759c-0.896-0.506-1.603-1.213-2.123-2.123
		c-0.521-0.909-0.781-1.98-0.781-3.212c0-1.247,0.26-2.325,0.781-3.233c0.521-0.91,1.228-1.614,2.123-2.113
		c0.895-0.498,1.898-0.748,3.014-0.748c0.997,0,1.87,0.22,2.618,0.66s1.327,1.107,1.738,2.001c0.41,0.896,0.615,2.039,0.615,3.433
		c0,1.379-0.197,2.519-0.594,3.421c-0.396,0.902-0.965,1.573-1.705,2.014C121.26,27.113,120.368,27.333,119.327,27.333z
		 M119.921,24.518c0.558,0,1.063-0.133,1.519-0.396c0.454-0.264,0.817-0.641,1.089-1.133c0.271-0.491,0.407-1.074,0.407-1.749
		c0-0.689-0.136-1.276-0.407-1.761c-0.271-0.483-0.635-0.857-1.089-1.121c-0.455-0.264-0.961-0.396-1.519-0.396
		c-0.571,0-1.085,0.133-1.54,0.396c-0.454,0.264-0.817,0.638-1.089,1.121c-0.271,0.484-0.407,1.071-0.407,1.761
		c0,0.675,0.136,1.258,0.407,1.749c0.271,0.492,0.635,0.869,1.089,1.133C118.836,24.385,119.35,24.518,119.921,24.518z
		 M123.023,27.157v-2.42l0.065-3.521l-0.22-3.498v-6.886h3.432v16.324H123.023z"/>
	<path fill="#FFFFFF" d="M144.627,15.145c0.938,0,1.771,0.187,2.497,0.561c0.726,0.374,1.298,0.946,1.716,1.716
		c0.418,0.771,0.627,1.757,0.627,2.959v6.776h-3.432v-6.248c0-0.953-0.198-1.657-0.595-2.112c-0.396-0.454-0.953-0.682-1.672-0.682
		c-0.499,0-0.945,0.113-1.342,0.341c-0.396,0.228-0.704,0.569-0.924,1.022c-0.22,0.455-0.33,1.035-0.33,1.738v5.94h-3.432v-6.248
		c0-0.953-0.195-1.657-0.583-2.112c-0.39-0.454-0.943-0.682-1.661-0.682c-0.499,0-0.946,0.113-1.343,0.341
		c-0.396,0.228-0.703,0.569-0.924,1.022c-0.22,0.455-0.33,1.035-0.33,1.738v5.94h-3.432V15.321h3.278v3.233l-0.616-0.945
		c0.41-0.807,0.993-1.419,1.749-1.837c0.755-0.418,1.617-0.627,2.585-0.627c1.085,0,2.035,0.275,2.849,0.825
		c0.814,0.549,1.354,1.389,1.617,2.519l-1.21-0.33c0.396-0.924,1.03-1.657,1.903-2.2C142.496,15.417,143.497,15.145,144.627,15.145z
		"/>
	<path fill="#FFFFFF" d="M154.262,13.671c-0.631,0-1.144-0.184-1.54-0.55c-0.396-0.366-0.594-0.821-0.594-1.364
		s0.198-0.998,0.594-1.364c0.396-0.366,0.909-0.55,1.54-0.55s1.145,0.172,1.54,0.517c0.396,0.345,0.594,0.789,0.594,1.331
		c0,0.572-0.194,1.045-0.583,1.419S154.907,13.671,154.262,13.671z M152.546,27.157V15.321h3.432v11.836H152.546z"/>
	<path fill="#FFFFFF" d="M166.362,15.145c0.938,0,1.778,0.187,2.519,0.561s1.323,0.946,1.749,1.716
		c0.426,0.771,0.638,1.757,0.638,2.959v6.776h-3.432v-6.248c0-0.953-0.209-1.657-0.627-2.112c-0.418-0.454-1.009-0.682-1.771-0.682
		c-0.542,0-1.03,0.113-1.463,0.341s-0.77,0.576-1.012,1.046c-0.242,0.469-0.363,1.07-0.363,1.803v5.853h-3.432V15.321h3.278V18.6
		l-0.616-0.99c0.425-0.792,1.034-1.4,1.826-1.826C164.448,15.358,165.35,15.145,166.362,15.145z"/>
</g>
<g>
	<path fill="#FFBE19" d="M0,8.421C0,3.77,3.77,0,8.421,0h15.158C28.23,0,32,3.77,32,8.421v15.158C32,28.23,28.23,32,23.579,32H8.421
		C3.77,32,0,28.23,0,23.579V8.421z"/>
	<path fill="#021844" d="M12.884,13.945H9c-0.57-0.005-1.118,0.217-1.525,0.617c-0.407,0.4-0.637,0.945-0.642,1.515v8.066
		c0.01,1.187,0.98,2.141,2.167,2.13h3.885c0.57,0.005,1.118-0.217,1.524-0.617c0.407-0.399,0.638-0.944,0.643-1.515v-8.064
		c-0.005-0.57-0.236-1.115-0.643-1.515C14.002,14.162,13.454,13.94,12.884,13.945z"/>
	<path fill="#FF6918" d="M12.884,5.727H9C7.837,5.694,6.868,6.609,6.833,7.771V9.16C6.868,10.322,7.837,11.237,9,11.205h3.885
		c1.162,0.032,2.132-0.883,2.167-2.045V7.771C15.016,6.609,14.046,5.694,12.884,5.727z"/>
	<path fill="#FF6918" d="M19.957,18.054h3.884c0.57,0.005,1.119-0.216,1.525-0.616c0.407-0.399,0.638-0.944,0.644-1.515V7.857
		c-0.006-0.57-0.236-1.114-0.643-1.514s-0.955-0.622-1.525-0.617h-3.885c-0.569-0.005-1.118,0.217-1.524,0.617
		s-0.638,0.944-0.642,1.514v8.065c0.004,0.57,0.235,1.115,0.642,1.515S19.388,18.059,19.957,18.054z"/>
	<path fill="#021844" d="M19.957,26.272h3.884c1.163,0.033,2.134-0.882,2.169-2.045v-1.389c-0.035-1.163-1.005-2.077-2.168-2.045
		h-3.885c-1.162-0.032-2.131,0.882-2.166,2.045v1.388C17.824,25.389,18.795,26.305,19.957,26.272z"/>
</g>
</svg>
