<?xml version="1.0" encoding="utf-8"?>
<!-- Generator: Adobe Illustrator 16.0.0, SVG Export Plug-In . SVG Version: 6.00 Build 0)  -->
<!DOCTYPE svg PUBLIC "-//W3C//DTD SVG 1.1//EN" "http://www.w3.org/Graphics/SVG/1.1/DTD/svg11.dtd">
<svg version="1.1" id="Layer_1" xmlns="http://www.w3.org/2000/svg" xmlns:xlink="http://www.w3.org/1999/xlink" x="0px" y="0px"
	 width="176px" height="32px" viewBox="0 0 176 32" enable-background="new 0 0 176 32" xml:space="preserve">
<g>
	<path d="M46.263,27.156V11.757h7.524c1.936,0,3.391,0.367,4.367,1.1c0.976,0.733,1.463,1.701,1.463,2.904
		c0,0.807-0.198,1.506-0.594,2.1c-0.396,0.595-0.938,1.053-1.628,1.375c-0.69,0.324-1.481,0.484-2.376,0.484l0.418-0.902
		c0.968,0,1.826,0.158,2.574,0.474c0.748,0.315,1.331,0.78,1.749,1.397c0.418,0.615,0.627,1.371,0.627,2.266
		c0,1.32-0.521,2.352-1.562,3.092c-1.042,0.74-2.574,1.109-4.598,1.109H46.263z M49.805,24.473h4.158
		c0.924,0,1.625-0.148,2.101-0.449s0.715-0.781,0.715-1.441c0-0.646-0.238-1.126-0.715-1.439c-0.477-0.315-1.177-0.475-2.101-0.475
		h-4.422v-2.596h3.806c0.865,0,1.529-0.15,1.991-0.451s0.693-0.76,0.693-1.375c0-0.601-0.231-1.052-0.693-1.353
		c-0.462-0.3-1.125-0.451-1.991-0.451h-3.542V24.473z"/>
	<path d="M66.503,27.333c-0.924,0-1.716-0.157-2.376-0.474c-0.66-0.314-1.166-0.743-1.518-1.287
		c-0.352-0.541-0.528-1.15-0.528-1.825c0-0.704,0.172-1.319,0.517-1.849c0.344-0.527,0.891-0.941,1.639-1.242
		s1.723-0.451,2.926-0.451h3.146v2.002h-2.772c-0.807,0-1.36,0.133-1.661,0.396c-0.301,0.263-0.451,0.594-0.451,0.99
		c0,0.438,0.172,0.787,0.517,1.045c0.345,0.256,0.818,0.385,1.419,0.385c0.572,0,1.085-0.137,1.54-0.407s0.785-0.671,0.99-1.199
		l0.528,1.585c-0.25,0.762-0.704,1.342-1.364,1.736C68.395,27.135,67.544,27.333,66.503,27.333z M70.111,27.156v-2.309l-0.22-0.507
		v-4.137c0-0.731-0.224-1.306-0.671-1.716c-0.448-0.411-1.133-0.616-2.057-0.616c-0.631,0-1.25,0.101-1.859,0.297
		c-0.609,0.198-1.126,0.468-1.551,0.804l-1.232-2.397c0.646-0.455,1.422-0.807,2.332-1.056c0.909-0.249,1.833-0.374,2.772-0.374
		c1.804,0,3.205,0.426,4.202,1.276c0.997,0.851,1.496,2.179,1.496,3.981v6.754H70.111z"/>
	<path d="M75.017,18.225v-2.639h8.206v2.639H75.017z M81.265,27.333c-1.394,0-2.479-0.354-3.256-1.067
		c-0.777-0.711-1.166-1.771-1.166-3.178V12.703h3.432v10.34c0,0.499,0.132,0.885,0.396,1.154c0.264,0.271,0.623,0.408,1.078,0.408
		c0.542,0,1.004-0.146,1.386-0.44l0.924,2.421c-0.352,0.249-0.773,0.436-1.265,0.561C82.302,27.271,81.793,27.333,81.265,27.333z"/>
	<path d="M91.494,27.333c-1.35,0-2.533-0.265-3.553-0.792s-1.808-1.25-2.365-2.167c-0.558-0.916-0.836-1.962-0.836-3.136
		c0-1.188,0.275-2.239,0.825-3.156c0.55-0.916,1.302-1.635,2.255-2.156c0.954-0.521,2.032-0.781,3.235-0.781
		c1.157,0,2.202,0.246,3.135,0.737c0.932,0.492,1.668,1.196,2.211,2.112c0.543,0.917,0.813,2.014,0.813,3.289
		c0,0.132-0.008,0.283-0.021,0.451c-0.016,0.168-0.031,0.326-0.045,0.473h-9.614v-2.002h7.809l-1.317,0.594
		c0-0.615-0.125-1.15-0.375-1.605s-0.594-0.811-1.033-1.065c-0.441-0.258-0.955-0.386-1.541-0.386s-1.104,0.128-1.551,0.386
		c-0.447,0.256-0.795,0.615-1.045,1.077c-0.25,0.462-0.373,1.009-0.373,1.641v0.526c0,0.646,0.143,1.214,0.428,1.705
		c0.287,0.491,0.689,0.864,1.211,1.122c0.52,0.257,1.133,0.385,1.836,0.385c0.631,0,1.186-0.096,1.662-0.286
		c0.477-0.188,0.912-0.478,1.309-0.856l1.826,1.979c-0.543,0.615-1.225,1.088-2.047,1.418
		C93.512,27.168,92.564,27.333,91.494,27.333z"/>
	<path d="M97.721,27.156l6.864-15.399h3.521l6.887,15.399h-3.74l-5.632-13.595h1.407l-5.653,13.595H97.721z M101.152,23.857
		l0.945-2.707h7.92l0.969,2.707H101.152z"/>
	<path d="M121.327,27.333c-1.115,0-2.119-0.253-3.015-0.759s-1.603-1.213-2.123-2.123c-0.521-0.909-0.78-1.98-0.78-3.213
		c0-1.246,0.26-2.324,0.78-3.232c0.521-0.91,1.229-1.614,2.123-2.113c0.896-0.498,1.898-0.748,3.015-0.748
		c0.997,0,1.87,0.22,2.618,0.66c0.748,0.44,1.326,1.107,1.738,2.001c0.41,0.896,0.614,2.039,0.614,3.432
		c0,1.38-0.196,2.52-0.594,3.422c-0.396,0.902-0.966,1.572-1.705,2.014C123.26,27.113,122.368,27.333,121.327,27.333z
		 M121.921,24.518c0.558,0,1.063-0.133,1.519-0.396c0.455-0.265,0.817-0.642,1.09-1.134c0.271-0.49,0.406-1.073,0.406-1.748
		c0-0.689-0.136-1.276-0.406-1.762c-0.271-0.482-0.635-0.856-1.09-1.121c-0.455-0.264-0.961-0.396-1.519-0.396
		c-0.571,0-1.085,0.134-1.54,0.396c-0.453,0.265-0.816,0.639-1.089,1.121c-0.271,0.484-0.407,1.071-0.407,1.762
		c0,0.675,0.137,1.258,0.407,1.748c0.271,0.492,0.636,0.869,1.089,1.134C120.836,24.385,121.35,24.518,121.921,24.518z
		 M125.023,27.156v-2.42l0.064-3.521l-0.22-3.497v-6.887h3.432v16.324H125.023L125.023,27.156z"/>
	<path d="M146.627,15.145c0.938,0,1.771,0.187,2.497,0.561s1.298,0.946,1.716,1.716c0.418,0.771,0.627,1.758,0.627,2.959v6.775
		h-3.432v-6.247c0-0.953-0.198-1.657-0.596-2.112c-0.396-0.453-0.953-0.682-1.672-0.682c-0.498,0-0.945,0.113-1.342,0.341
		s-0.703,0.569-0.924,1.022c-0.221,0.455-0.33,1.035-0.33,1.737v5.94h-3.432v-6.248c0-0.953-0.195-1.657-0.583-2.112
		c-0.39-0.454-0.943-0.683-1.661-0.683c-0.499,0-0.946,0.113-1.344,0.342c-0.396,0.229-0.702,0.568-0.924,1.021
		c-0.22,0.455-0.33,1.035-0.33,1.738v5.939h-3.432V15.321h3.278v3.234l-0.616-0.945c0.41-0.807,0.993-1.419,1.749-1.837
		c0.755-0.418,1.617-0.627,2.585-0.627c1.085,0,2.035,0.275,2.85,0.825c0.813,0.549,1.354,1.389,1.617,2.518l-1.211-0.329
		c0.396-0.925,1.03-1.657,1.903-2.2C144.496,15.417,145.497,15.145,146.627,15.145z"/>
	<path d="M156.262,13.671c-0.631,0-1.144-0.184-1.539-0.55c-0.396-0.366-0.595-0.821-0.595-1.364s0.198-0.998,0.595-1.364
		c0.396-0.366,0.908-0.55,1.539-0.55s1.145,0.172,1.541,0.517c0.395,0.345,0.594,0.789,0.594,1.331c0,0.572-0.194,1.045-0.584,1.419
		C157.424,13.484,156.906,13.671,156.262,13.671z M154.546,27.156V15.321h3.433v11.835H154.546z"/>
	<path d="M168.361,15.145c0.938,0,1.779,0.187,2.52,0.561c0.741,0.374,1.323,0.946,1.749,1.716c0.427,0.771,0.638,1.758,0.638,2.959
		v6.775h-3.432v-6.247c0-0.953-0.209-1.657-0.627-2.112c-0.418-0.453-1.009-0.682-1.771-0.682c-0.541,0-1.029,0.113-1.463,0.341
		c-0.433,0.228-0.77,0.575-1.012,1.046c-0.242,0.469-0.363,1.07-0.363,1.803v5.854h-3.432V15.321h3.277V18.6l-0.615-0.99
		c0.425-0.791,1.033-1.399,1.826-1.825C166.447,15.358,167.35,15.145,168.361,15.145z"/>
</g>
<g>
	<path fill="#FFBE19" d="M2,8.421C2,3.77,5.77,0,10.421,0h15.158C30.23,0,34,3.77,34,8.421v15.158C34,28.23,30.23,32,25.579,32
		H10.421C5.77,32,2,28.23,2,23.579V8.421z"/>
	<path fill="#021844" d="M14.884,13.945H11c-0.57-0.005-1.118,0.217-1.525,0.617c-0.407,0.4-0.637,0.945-0.642,1.515v8.066
		c0.01,1.187,0.98,2.141,2.167,2.13h3.885c0.57,0.005,1.118-0.217,1.524-0.617c0.407-0.399,0.638-0.944,0.643-1.515v-8.064
		c-0.005-0.57-0.236-1.115-0.643-1.515C16.002,14.162,15.454,13.94,14.884,13.945z"/>
	<path fill="#FF6918" d="M14.884,5.727H11C9.837,5.694,8.868,6.609,8.833,7.771V9.16c0.035,1.162,1.004,2.077,2.167,2.045h3.885
		c1.162,0.032,2.132-0.883,2.167-2.045V7.771C17.016,6.609,16.046,5.694,14.884,5.727z"/>
	<path fill="#FF6918" d="M21.957,18.054h3.884c0.57,0.005,1.119-0.216,1.525-0.616c0.407-0.399,0.638-0.944,0.644-1.515V7.857
		c-0.006-0.57-0.236-1.114-0.643-1.514s-0.955-0.622-1.525-0.617h-3.885c-0.569-0.005-1.118,0.217-1.524,0.617
		s-0.638,0.944-0.642,1.514v8.065c0.004,0.57,0.235,1.115,0.642,1.515S21.388,18.059,21.957,18.054z"/>
	<path fill="#021844" d="M21.957,26.272h3.884c1.163,0.033,2.134-0.882,2.169-2.045v-1.389c-0.035-1.163-1.005-2.077-2.168-2.045
		h-3.885c-1.162-0.032-2.131,0.882-2.166,2.045v1.388C19.824,25.389,20.795,26.305,21.957,26.272z"/>
</g>
</svg>
