<?xml version="1.0" encoding="utf-8"?>
<!-- Generator: Adobe Illustrator 16.0.0, SVG Export Plug-In . SVG Version: 6.00 Build 0)  -->
<!DOCTYPE svg PUBLIC "-//W3C//DTD SVG 1.1//EN" "http://www.w3.org/Graphics/SVG/1.1/DTD/svg11.dtd">
<svg version="1.1" id="Layer_1" xmlns="http://www.w3.org/2000/svg" xmlns:xlink="http://www.w3.org/1999/xlink" x="0px" y="0px"
	 width="32px" height="32px" viewBox="0 0 32 32" enable-background="new 0 0 32 32" xml:space="preserve">
<path fill="#FFBE19" d="M0,8.421C0,3.77,3.77,0,8.421,0h15.158C28.23,0,32,3.77,32,8.421v15.158C32,28.23,28.23,32,23.579,32H8.421
	C3.77,32,0,28.23,0,23.579V8.421z"/>
<path fill="#021844" d="M12.884,13.945H9c-0.57-0.005-1.118,0.217-1.525,0.617c-0.407,0.4-0.637,0.945-0.642,1.515v8.066
	c0.01,1.187,0.98,2.141,2.167,2.13h3.885c0.57,0.005,1.118-0.217,1.524-0.617c0.407-0.399,0.638-0.944,0.643-1.515v-8.064
	c-0.005-0.57-0.236-1.115-0.643-1.515C14.002,14.162,13.454,13.94,12.884,13.945z"/>
<path fill="#FF6918" d="M12.884,5.727H9C7.837,5.694,6.868,6.609,6.833,7.771V9.16C6.868,10.322,7.837,11.237,9,11.205h3.885
	c1.162,0.032,2.132-0.883,2.167-2.045V7.771C15.016,6.609,14.046,5.694,12.884,5.727z"/>
<path fill="#FF6918" d="M19.957,18.054h3.884c0.57,0.005,1.119-0.216,1.525-0.616c0.407-0.399,0.638-0.944,0.644-1.515V7.857
	c-0.006-0.57-0.236-1.114-0.643-1.514s-0.955-0.622-1.525-0.617h-3.885c-0.569-0.005-1.118,0.217-1.524,0.617
	s-0.638,0.944-0.642,1.514v8.065c0.004,0.57,0.235,1.115,0.642,1.515S19.388,18.059,19.957,18.054z"/>
<path fill="#021844" d="M19.957,26.272h3.884c1.163,0.033,2.134-0.882,2.169-2.045v-1.389c-0.035-1.163-1.005-2.077-2.168-2.045
	h-3.885c-1.162-0.032-2.131,0.882-2.166,2.045v1.388C17.824,25.389,18.795,26.305,19.957,26.272z"/>
</svg>
